<svg width="180" height="52" viewBox="0 0 180 52" fill="none" xmlns="http://www.w3.org/2000/svg">
  <defs>
    <linearGradient id="paint0_linear" x1="7" y1="5" x2="173" y2="47" gradientUnits="userSpaceOnUse">
      <stop stop-color="#7CF2FF" />
      <stop offset="0.48" stop-color="#8F6BFF" />
      <stop offset="1" stop-color="#FF69F9" />
    </linearGradient>
    <linearGradient id="paint1_linear" x1="17" y1="10" x2="54" y2="44" gradientUnits="userSpaceOnUse">
      <stop stop-color="#7CF2FF" />
      <stop offset="1" stop-color="#8F6BFF" />
    </linearGradient>
  </defs>
  <rect x="1.5" y="1.5" width="177" height="49" rx="24.5" stroke="url(#paint0_linear)" stroke-width="3" opacity="0.65" />
  <path d="M40.4127 14.9103C44.8177 14.9103 48.3867 18.4793 48.3867 22.8843C48.3867 27.2893 44.8177 30.8583 40.4127 30.8583H36.0867C35.0227 30.8583 34.1627 31.7183 34.1627 32.7823V37.1083C34.1627 38.1723 33.3027 39.0323 32.2387 39.0323H26.2907C25.2267 39.0323 24.3667 38.1723 24.3667 37.1083V22.8843C24.3667 18.4793 27.9357 14.9103 32.3407 14.9103H40.4127Z" fill="url(#paint1_linear)" />
  <path d="M63.5583 33.2751H71.1013C71.9883 33.2751 72.8133 32.8511 73.3273 32.1351L76.5333 27.6081L79.7393 32.1351C80.2533 32.8511 81.0783 33.2751 81.9653 33.2751H89.4693C91.2223 33.2751 92.1713 31.2891 91.1193 29.8651L84.2213 20.4851C83.7073 19.7691 82.8823 19.3451 81.9953 19.3451H71.0403C70.1533 19.3451 69.3283 19.7691 68.8143 20.4851L61.9163 29.8651C60.8643 31.2891 61.8133 33.2751 63.5583 33.2751Z" fill="url(#paint0_linear)" />
  <path d="M101.113 33.2145C97.6507 33.2145 94.6607 31.2235 93.3107 28.2935C92.8727 27.3515 93.5797 26.2755 94.6237 26.2755H99.0907C99.6997 26.2755 100.243 26.6265 100.485 27.1825C100.904 28.1435 101.922 28.8005 103.067 28.8005C104.473 28.8005 105.488 27.9875 105.488 26.9785C105.488 26.0525 104.705 25.3705 102.573 24.7715L99.3547 23.8575C95.0697 22.6295 92.4817 20.1105 92.4817 16.1265C92.4817 11.5395 96.2777 8.00049 101.676 8.00049C106.222 8.00049 110.019 10.5585 111.326 14.2685C111.68 15.2565 110.938 16.2745 109.888 16.2745H105.507C104.923 16.2745 104.402 15.9585 104.16 15.4545C103.716 14.5405 102.799 13.9735 101.676 13.9735C100.438 13.9735 99.4807 14.7415 99.4807 15.8345C99.4807 16.6395 100.058 17.3185 101.739 17.7775L105.374 18.7755C109.93 20.0105 112.588 22.5605 112.588 26.7355C112.588 31.4555 108.585 35.0005 103.034 35.0005C98.0667 35.0005 94.0037 32.4275 92.6477 28.5335C92.3107 27.5285 93.0477 26.4875 94.1017 26.4875H98.4137C99.0127 26.4875 99.5487 26.8125 99.8067 27.3445C100.261 28.3065 101.256 28.9875 102.389 28.9875C103.824 28.9875 104.829 28.1585 104.829 27.1575C104.829 26.2425 104.032 25.5625 101.89 24.9605L98.6717 24.0465C94.3207 22.8115 91.7397 20.2225 91.7397 16.1265C91.7397 11.3365 95.7417 7.82049 101.145 7.82049C105.602 7.82049 109.299 10.2115 110.813 13.8795C111.191 14.8745 110.452 15.9245 109.388 15.9245H104.966C104.393 15.9245 103.882 15.6125 103.643 15.1135C103.202 14.2115 102.291 13.6555 101.176 13.6555C100.01 13.6555 99.0597 14.4125 99.0597 15.4945C99.0597 16.3145 99.6367 16.9875 101.288 17.4435L104.907 18.4365C109.43 19.6695 112.071 22.2015 112.071 26.3725C112.071 31.0375 108.147 34.5125 102.611 34.5125C97.6697 34.5125 93.6497 31.9605 92.3027 28.0825C91.9727 27.0995 92.7057 26.0825 93.7517 26.0825H98.0347C98.6297 26.0825 99.1617 26.3995 99.4167 26.9265C99.8657 27.8835 100.846 28.5625 101.966 28.5625C103.381 28.5625 104.381 27.7405 104.381 26.7445C104.381 25.8415 103.594 25.1655 101.456 24.5665L98.2467 23.6525C94.0087 22.4455 91.4527 19.8875 91.4527 15.9155C91.4527 11.3495 95.2347 7.84049 100.602 7.84049C105.13 7.84049 108.907 10.2365 110.403 13.9125C110.776 14.8955 110.034 15.9325 108.983 15.9325H104.628C104.041 15.9325 103.517 15.6145 103.275 15.1095C102.829 14.2165 101.911 13.6665 100.789 13.6665C99.6007 13.6665 98.6607 14.4135 98.6607 15.5015C98.6607 16.3255 99.2357 17.0045 100.895 17.4585L104.54 18.4545C109.105 19.6925 111.768 22.2245 111.768 26.3985C111.768 31.0525 107.815 34.5135 102.247 34.5135Z" fill="url(#paint0_linear)" opacity="0.86" />
  <text x="118" y="32" fill="#F5F8FF" font-family="'Space Grotesk', 'Segoe UI', sans-serif" font-weight="600" font-size="18">HashEquity</text>
</svg>
