<svg width="180" height="180" viewBox="0 0 180 180" fill="none" xmlns="http://www.w3.org/2000/svg">
  <defs>
    <radialGradient id="flux-prism-glow" cx="50%" cy="50%" r="60%">
      <stop offset="0%" stop-color="#FFF2F9" />
      <stop offset="40%" stop-color="#FF8FE3" />
      <stop offset="100%" stop-color="#AB2F92" />
    </radialGradient>
    <linearGradient id="flux-prism-ring" x1="0" y1="0" x2="1" y2="1">
      <stop offset="0%" stop-color="#FFC8F2" />
      <stop offset="100%" stop-color="#7A1F6A" />
    </linearGradient>
  </defs>
  <circle cx="90" cy="90" r="82" fill="url(#flux-prism-ring)" opacity="0.9" />
  <circle cx="90" cy="90" r="62" fill="url(#flux-prism-glow)" />
  <path d="M90 38L134 90L90 142L46 90L90 38Z" fill="#340B38" opacity="0.55" />
  <path d="M90 54L120 90L90 126L60 90L90 54Z" fill="#FFCAF2" opacity="0.55" />
  <path d="M90 66L110 90L90 114L70 90L90 66Z" fill="#D63BC2" opacity="0.9" />
  <path d="M90 74L104 90L90 106L76 90L90 74Z" fill="#FFDFF8" />
  <path d="M90 82L98 90L90 98L82 90L90 82Z" fill="#FFFAFB" />
</svg>
