<svg width="180" height="180" viewBox="0 0 180 180" fill="none" xmlns="http://www.w3.org/2000/svg">
  <defs>
    <radialGradient id="hash-core-glow" cx="50%" cy="50%" r="60%">
      <stop offset="0%" stop-color="#FFF4C5" />
      <stop offset="45%" stop-color="#FFD46A" />
      <stop offset="100%" stop-color="#D18C1C" />
    </radialGradient>
    <linearGradient id="hash-core-ring" x1="0" y1="0" x2="0" y2="1">
      <stop offset="0%" stop-color="#FFF6D2" />
      <stop offset="100%" stop-color="#C67A14" />
    </linearGradient>
  </defs>
  <circle cx="90" cy="90" r="82" fill="url(#hash-core-ring)" opacity="0.9" />
  <circle cx="90" cy="90" r="68" fill="url(#hash-core-glow)" />
  <path d="M90 38L118 52L132 80L118 108L90 122L62 108L48 80L62 52L90 38Z" fill="#FFF7DF" opacity="0.4" />
  <path d="M90 56L109 66L119 90L109 114L90 124L71 114L61 90L71 66L90 56Z" fill="#8F4A04" opacity="0.5" />
  <circle cx="90" cy="90" r="30" fill="#FFFAE9" opacity="0.75" />
  <path d="M90 68L104 90L90 112L76 90L90 68Z" fill="#E6A220" opacity="0.8" />
  <circle cx="90" cy="90" r="14" fill="#FFF6D2" />
</svg>
