<svg width="180" height="180" viewBox="0 0 180 180" fill="none" xmlns="http://www.w3.org/2000/svg">
  <defs>
    <radialGradient id="quantum-lattice-glow" cx="50%" cy="50%" r="60%">
      <stop offset="0%" stop-color="#F4EBFF" />
      <stop offset="40%" stop-color="#C294FF" />
      <stop offset="100%" stop-color="#5420A1" />
    </radialGradient>
    <linearGradient id="quantum-lattice-ring" x1="0" y1="0" x2="1" y2="1">
      <stop offset="0%" stop-color="#D9B7FF" />
      <stop offset="100%" stop-color="#451580" />
    </linearGradient>
  </defs>
  <circle cx="90" cy="90" r="82" fill="url(#quantum-lattice-ring)" opacity="0.92" />
  <circle cx="90" cy="90" r="64" fill="url(#quantum-lattice-glow)" />
  <path d="M54 72L90 52L126 72V108L90 128L54 108V72Z" fill="#2F0E6A" opacity="0.6" />
  <path d="M90 60L118 76V104L90 120L62 104V76L90 60Z" fill="#CDA7FF" opacity="0.5" />
  <path d="M90 70L110 82V98L90 110L70 98V82L90 70Z" fill="#742DD4" />
  <path d="M90 76L104 84V96L90 104L76 96V84L90 76Z" fill="#E9D3FF" opacity="0.75" />
  <circle cx="90" cy="90" r="10" fill="#F9F3FF" />
</svg>
